<?xml version="1.0" encoding="UTF-8" standalone="no"?>
<!-- Created with Inkscape (http://www.inkscape.org/) -->

<svg
   xmlns:dc="http://purl.org/dc/elements/1.1/"
   xmlns:cc="http://creativecommons.org/ns#"
   xmlns:rdf="http://www.w3.org/1999/02/22-rdf-syntax-ns#"
   xmlns:svg="http://www.w3.org/2000/svg"
   xmlns="http://www.w3.org/2000/svg"
   xmlns:sodipodi="http://sodipodi.sourceforge.net/DTD/sodipodi-0.dtd"
   xmlns:inkscape="http://www.inkscape.org/namespaces/inkscape"
   width="488.71774"
   height="490.59573"
   id="svg2"
   version="1.1"
   inkscape:version="0.48.4 r9939"
   sodipodi:docname="logo.svg">
  <defs
     id="defs4" />
  <sodipodi:namedview
     id="base"
     pagecolor="#ffffff"
     bordercolor="#666666"
     borderopacity="1.0"
     inkscape:pageopacity="0.0"
     inkscape:pageshadow="2"
     inkscape:zoom="1.979899"
     inkscape:cx="328.07861"
     inkscape:cy="286.80882"
     inkscape:document-units="px"
     inkscape:current-layer="layer1"
     showgrid="false"
     inkscape:window-width="1855"
     inkscape:window-height="1056"
     inkscape:window-x="1665"
     inkscape:window-y="24"
     inkscape:window-maximized="1"
     fit-margin-top="0"
     fit-margin-left="0"
     fit-margin-right="0"
     fit-margin-bottom="0" />
  <metadata
     id="metadata7">
    <rdf:RDF>
      <cc:Work
         rdf:about="">
        <dc:format>image/svg+xml</dc:format>
        <dc:type
           rdf:resource="http://purl.org/dc/dcmitype/StillImage" />
        <dc:title></dc:title>
      </cc:Work>
    </rdf:RDF>
  </metadata>
  <g
     inkscape:label="Layer 1"
     inkscape:groupmode="layer"
     id="layer1"
     transform="translate(-131.66069,-205.74076)">
    <g
       id="g3192">
      <g
         inkscape:export-ydpi="157.69609"
         inkscape:export-xdpi="157.69609"
         inkscape:export-filename="/home/erika/DEV/codecatz/logo.svg.png"
         transform="translate(729.99999,210.04905)"
         id="g3050">
        <path
           inkscape:connector-curvature="0"
           id="path3064"
           d="m -576.1499,485.14651 c -6.6709,-1.80064 -14.14806,-7.55843 -17.65099,-13.59214 -0.9081,-1.56419 -1.83803,-2.98299 -2.06652,-3.1529 -0.22849,-0.16991 -0.87814,-2.1733 -1.44366,-4.45198 -0.94934,-3.82518 -1.02823,-20.94154 -1.02823,-223.08875 0,-199.604376 0.088,-219.242154 0.99625,-222.301592 1.20303,-4.052401 4.09606,-9.9212005 5.44083,-11.0372624 0.53746,-0.4460539 0.9772,-1.1940163 0.9772,-1.6621395 0,-0.4681225 0.39688,-0.8511322 0.88194,-0.8511322 0.48507,0 1.38869,-0.6255803 2.00804,-1.3901785 1.74582,-2.1552433 5.69774,-4.48554361 10.61507,-6.2593245 l 4.48645,-1.618354 218.61952,0 218.61953,0 4.23561,1.3009795 c 5.1027,1.567304 7.13809,2.64883954 10.34212,5.495449 3.67225,3.2625884 5.28756,5.1790663 7.59816,9.0147756 4.23017,7.022276 3.92925,-11.50562224 3.75406,231.137349 l -0.15872,219.84251 -1.43207,3.54602 c -0.78765,1.95031 -2.38672,4.86968 -3.5535,6.4875 -1.16678,1.61781 -2.3922,3.56706 -2.72316,4.33166 -0.33097,0.7646 -1.00992,1.39018 -1.5088,1.39018 -0.49887,0 -1.27035,0.4917 -1.7144,1.09266 -1.18281,1.6008 -7.77081,4.90373 -11.95445,5.99343 -3.22957,0.84119 -27.77594,0.94193 -221.45146,0.90888 -206.74245,-0.0353 -218.02624,-0.093 -221.88882,-1.13564 z"
           style="fill:#b3c766" />
      </g>
      <path
         inkscape:connector-curvature="0"
         id="path3056"
         d="m 155.04188,695.43879 c -11.02688,-3.0402 -19.5779,-11.7149 -22.56341,-22.8898 -0.68125,-2.5499 -0.82399,-41.2231 -0.81758,-221.5017 0.005,-147.69341 0.21393,-219.30721 0.64449,-221.1757 1.86865,-8.10952 8.92388,-17.15753 16.09613,-20.64256 7.64744,-3.71592 -9.45182,-3.45572 227.6241,-3.46372 238.52086,-0.008 220.73888,-0.28624 227.90681,3.56568 7.3691,3.96004 14.317,13.252 15.81493,21.15053 0.40235,2.12156 0.61356,78.83653 0.60877,221.11347 -0.006,179.5657 -0.15214,218.4078 -0.83104,220.954 -2.86994,10.7637 -10.68749,18.9959 -21.21325,22.3384 l -4.56331,1.4491 -217.92557,-0.055 c -174.50829,-0.044 -218.49447,-0.2121 -220.78107,-0.8425 z m 86.34686,-27.7516 c 5.00614,-1.6271 14.1652,-6.9896 14.81055,-8.6714 0.18292,-0.4767 -0.83816,-2.7704 -2.26908,-5.0971 -1.43092,-2.3267 -3.57156,-5.8349 -4.75698,-7.796 -1.18542,-1.961 -2.39505,-3.7137 -2.68806,-3.8948 -0.29302,-0.1811 -1.71674,0.4742 -3.16385,1.4562 -4.13581,2.8066 -6.58494,3.8198 -10.99405,4.5479 -3.42662,0.5659 -4.67959,0.5078 -7.64612,-0.3546 -11.37467,-3.3067 -14.41895,-18.0498 -5.33297,-25.8271 5.97658,-5.1157 15.06558,-4.7309 23.56476,0.9978 3.91765,2.6406 2.91388,3.4204 9.34386,-7.2592 l 4.4431,-7.3796 -2.66138,-2.2921 c -3.35057,-2.8857 -10.61983,-6.5065 -15.64995,-7.7952 -5.11005,-1.3091 -15.01459,-1.304 -20.48905,0.011 -8.73969,2.0987 -17.36613,8.1326 -22.11908,15.4716 -6.39922,9.8809 -7.45374,24.2584 -2.5512,34.7833 4.71868,10.1302 12.91378,16.7925 24.60029,19.9992 6.31192,1.7319 16.68103,1.336 23.55921,-0.8995 z m 72.33873,0.6855 c 0.26827,-0.4064 1.20616,-2.8304 2.0842,-5.3867 l 1.59643,-4.6477 12.32836,-0.1668 12.32837,-0.1668 0.70657,2.6418 c 0.38862,1.4529 1.272,3.9608 1.96307,5.573 l 1.2565,2.9313 11.10692,0 c 6.10881,0 11.24438,-0.2224 11.41239,-0.4942 0.28431,-0.46 -1.62271,-5.8683 -13.44221,-38.1218 -2.49059,-6.7965 -6.15846,-16.8753 -8.15081,-22.3974 l -3.62246,-10.0401 -13.613,0 -13.61299,0 -3.30714,9.1088 c -1.81893,5.0099 -4.78521,13.1404 -6.59174,18.0679 -10.00198,27.2809 -15.56969,42.9864 -15.36406,43.3392 0.12764,0.219 5.22747,0.4188 11.33295,0.4439 7.97402,0.033 11.23827,-0.1625 11.58865,-0.6934 z m 9.59864,-27.7978 c 0.15628,-0.4247 1.59926,-4.7343 3.20662,-9.5767 1.60737,-4.8425 3.01539,-8.8045 3.12894,-8.8045 0.11355,0 1.52157,3.962 3.12893,8.8045 1.60736,4.8424 3.05034,9.152 3.20662,9.5767 0.21615,0.5875 -1.30015,0.7724 -6.33555,0.7724 -5.03541,0 -6.5517,-0.1849 -6.33556,-0.7724 z m 116.0052,3.2144 0,-25.3028 9.26786,0 9.26785,0 0,-10.1946 0,-10.1946 -30.275,0 -30.275,0 0,10.1946 0,10.1946 9.26786,0 9.26786,0 0,24.9203 c 0,13.7061 0.17212,25.0923 0.38248,25.3027 0.21037,0.2104 5.49304,0.3825 11.73929,0.3825 l 11.3568,0 0,-25.3027 z m 116.775,15.1785 0,-10.1831 -13.86919,-0.166 -13.8692,-0.1661 7.53616,-9.3526 c 4.14489,-5.1439 10.38602,-12.84 13.86919,-17.1023 l 6.33304,-7.7498 0,-8.0753 0,-8.0753 -29.34821,0 -29.34822,0 0,10.1946 0,10.1946 13.90179,0 c 7.64598,0 13.90178,0.1541 13.90178,0.3425 0,0.3694 -8.1292,10.4164 -20.23482,25.0085 l -7.56875,9.1234 0,7.6831 c 0,4.2257 0.18536,7.8684 0.41191,8.0949 0.22654,0.2266 13.43324,0.4119 29.34821,0.4119 l 28.93631,0 0,-10.183 z m -158.08328,-94.5437 c 2.26008,-6.9597 3.48063,-8.9409 9.65831,-15.6774 4.92239,-5.3676 7.54679,-8.9782 7.55123,-10.3887 10e-4,-0.4037 -1.24396,-1.629 -2.76718,-2.7228 -1.52321,-1.0939 -2.93264,-2.503 -3.13207,-3.1314 -0.19942,-0.6283 0.10364,-2.7394 0.67346,-4.6914 0.76076,-2.606 0.91259,-4.452 0.57141,-6.9473 -0.72083,-5.2717 -0.6175,-7.5826 0.83363,-18.644 0.7434,-5.6667 1.35163,-12.5596 1.35163,-15.3177 0,-2.7581 0.45071,-8.6871 1.00158,-13.1756 1.56045,-12.7146 1.0598,-17.8192 -2.92135,-29.7859 -3.51693,-10.5713 -4.00524,-14.7841 -2.47074,-21.3161 0.35924,-1.52915 0.65996,-4.55618 0.66826,-6.72667 0.0138,-3.61545 0.24329,-4.29271 2.7362,-8.07672 2.86032,-4.34169 4.06479,-5.35729 9.70765,-8.18544 4.4047,-2.2076 6.72483,-4.3543 6.72483,-6.22214 0,-0.80655 0.70692,-2.13056 1.57093,-2.94225 2.64559,-2.48541 6.5049,-2.05594 16.49481,1.83554 l 8.48895,3.3068 6.95748,-0.62552 c 6.78187,-0.60973 7.10364,-0.58075 12.74864,1.14832 8.62466,2.64173 9.17929,2.54883 13.38561,-2.24223 3.77534,-4.30018 5.07039,-4.79212 7.14744,-2.71508 1.23432,1.23433 1.2796,1.70138 0.88348,9.11339 l -0.41752,7.8124 3.90491,4.15066 c 3.83544,4.07683 4.00825,4.17815 9.71343,5.6956 4.17318,1.10997 6.95641,2.30958 9.88572,4.26094 5.47553,3.6474 7.88144,4.3884 11.2968,3.479 2.6499,-0.7056 11.94048,-5.16743 19.69773,-9.45996 8.75338,-4.84376 16.31517,-6.07397 20.40283,-3.3193 2.99749,2.02 3.77243,3.83164 3.39274,7.93136 -0.50217,5.4222 -3.72002,13.341 -9.01245,22.1788 -5.41848,9.0483 -6.7215,10.8972 -11.75099,16.674 -5.67402,6.517 -7.62221,9.8535 -11.04413,18.9145 -1.78217,4.7191 -3.959,9.6923 -4.83737,11.0515 -3.94637,6.107 -7.27273,9.7549 -11.336,12.4318 -2.34734,1.5464 -4.88204,3.6914 -5.63266,4.7667 -0.75063,1.0753 -1.5789,2.1057 -1.84061,2.2898 -0.26172,0.1841 -0.44123,4.0766 -0.39892,8.65 0.0423,4.5734 -0.0227,10.2719 -0.14453,12.6633 -0.22041,4.3277 -0.20386,4.3797 3.54393,11.1215 4.32914,7.7875 5.96505,12.1423 5.44714,14.5003 -0.31088,1.4155 0.0536,1.9973 2.51339,4.013 l 2.87699,2.3575 7.80879,-1.3399 c 10.42359,-1.7886 12.73106,-1.7013 22.41034,0.8484 10.44138,2.7504 12.83857,3.1941 21.40644,3.9621 5.60334,0.5024 7.76049,0.9912 11.01007,2.4953 2.22276,1.0288 4.16099,1.8706 4.3072,1.8706 0.1462,0 0.26582,-75.4811 0.26582,-167.73571 0,-185.39681 0.33011,-170.59161 -3.8784,-173.93929 l -1.94183,-1.54464 -216.95181,-0.15706 -216.95181,-0.15705 -2.04644,1.39277 c -1.12554,0.76602 -2.62808,2.17774 -3.33897,3.13715 l -1.29252,1.74439 -0.15819,150.41564 -0.15819,150.4156 1.70283,-0.4071 c 2.32692,-0.5563 3.86533,-1.3967 3.86533,-2.1114 0,-0.3279 0.79269,-0.5962 1.76153,-0.5962 2.7421,0 13.64307,-2.8625 18.86745,-4.9544 3.63992,-1.4575 6.37782,-2.0384 11.97103,-2.54 7.46486,-0.6694 8.84946,-0.9395 21.46249,-4.1864 8.18692,-2.1076 11.61695,-2.3095 17.61878,-1.037 2.21426,0.4694 5.62068,1.0527 7.56984,1.2963 3.37869,0.4221 3.67135,0.3458 6.27739,-1.6366 2.56736,-1.953 2.73266,-2.2589 2.71982,-5.0334 -0.014,-3.0127 1.15533,-5.8229 6.73851,-16.1951 2.10207,-3.9051 2.30964,-4.707 2.15899,-8.341 -0.0917,-2.2113 -0.15701,-7.8612 -0.14519,-12.5553 l 0.0215,-8.5347 -2.24699,-2.7421 c -1.23585,-1.5082 -3.84752,-3.7144 -5.80372,-4.9028 -3.50023,-2.1262 -5.62722,-4.372 -9.97114,-10.528 -2.14382,-3.0382 -3.01355,-4.9738 -7.585,-16.8811 -2.28926,-5.9628 -3.00039,-7.038 -10.88589,-16.45871 -3.93375,-4.69961 -8.86096,-12.22565 -14.32329,-21.87801 -2.18612,-3.86306 -4.80968,-12.74473 -4.80968,-16.28249 0,-9.64967 10.00279,-11.24486 23.43802,-3.73778 7.89459,4.4112 18.68527,9.46361 21.00365,9.83433 2.72998,0.43654 6.13316,-0.87006 11.01787,-4.23016 1.92794,-1.32618 5.12853,-2.69511 8.28638,-3.54416 2.82983,-0.76085 5.73568,-1.70073 6.45743,-2.08862 1.58002,-0.84914 7.27618,-7.0783 7.81415,-8.54531 0.21048,-0.574 0.0836,-3.67719 -0.28209,-6.89599 -0.70723,-6.22598 -0.47205,-8.37655 1.08644,-9.93504 1.43461,-1.43461 3.18367,-1.18214 4.74741,0.68529 5.03585,6.01382 5.48639,6.37686 7.9136,6.37686 1.3022,0 4.65719,-0.72327 7.45553,-1.60726 4.76158,-1.50418 5.58587,-1.58103 12.85243,-1.1982 l 7.76454,0.40907 7.88193,-3.1268 c 5.80226,-2.30179 8.70403,-3.12681 10.99765,-3.12681 4.17117,0 6.75722,1.36209 6.77523,3.56855 0.0213,2.60692 1.68433,4.20108 7.70947,7.39006 5.08144,2.68951 5.81223,3.31595 8.47895,7.26818 2.58962,3.83796 2.92012,4.70768 2.93493,7.72321 0.009,1.86902 0.4337,5.57746 0.94337,8.24096 1.38576,7.24185 1.19798,8.93869 -2.11902,19.1476 -4.12807,12.70518 -4.71701,16.83746 -3.77182,26.46433 0.41169,4.1932 0.98444,11.9334 1.27278,17.2007 0.56093,10.2469 1.38774,18.2919 2.53204,24.637 0.55582,3.0821 0.53488,4.8688 -0.0963,8.2139 -0.70911,3.7581 -0.68198,4.6705 0.2244,7.5458 1.75859,5.5789 1.49069,6.7545 -2.05826,9.0319 -1.6991,1.0903 -3.08928,2.316 -3.08928,2.7237 0,1.3652 3.59447,6.1897 8.32811,11.178 6.16481,6.4966 8.33346,10.9418 11.45436,23.4786 2.15516,8.6573 3.04339,11.032 7.14829,19.1102 2.62361,5.1632 5.18995,11.1897 5.82893,13.6881 0.62787,2.455 1.9051,5.9499 2.83826,7.7666 l 1.69668,3.303 0.57422,-2.1625 c 0.31583,-1.1894 1.38682,-4.6649 2.38001,-7.7232 z m 0.59725,-165.92485 c -4.05932,-2.73515 -7.75091,-5.42829 -8.20353,-5.98474 -0.69839,-0.85859 14.12969,8.91535 15.82831,10.43324 1.88094,1.68083 -1.16881,-0.0985 -7.62478,-4.4485 z m -6.86397,3.73731 c -0.55687,-0.35988 -0.63307,-0.60272 -0.19093,-0.6084 0.40472,-0.005 0.90769,0.26858 1.11772,0.6084 0.47408,0.76708 0.26019,0.76708 -0.92679,0 z m 17.3,-3.8153 c -6.08889,-4.62195 -7.79344,-6.73435 -2.1625,-2.67993 5.49225,3.95457 6.85331,5.11066 6.45073,5.47927 -0.14969,0.13705 -2.07939,-1.12264 -4.28823,-2.79934 z m 1.54464,-5.28067 c -3.46158,-4.29436 -4.14762,-5.43293 -1.59273,-2.64332 2.29789,2.50899 4.08165,4.94289 3.62251,4.94284 -0.0969,-10e-6 -1.01031,-1.03479 -2.02978,-2.29952 z M 377.5456,361.21515 c 0,-0.13355 0.43149,-0.4084 0.95887,-0.61078 0.54985,-0.21099 0.79785,-0.10742 0.58139,0.24282 -0.36284,0.5871 -1.54026,0.86837 -1.54026,0.36796 z m -7.94701,-2.63338 c 1.82219,-1.2421 5.88491,-4.02965 9.02826,-6.19456 3.14334,-2.16491 5.71517,-3.8007 5.71517,-3.63509 0,0.35057 -13.96679,10.3476 -15.90809,11.38655 -2.63833,1.41199 -2.0635,0.64356 1.16466,-1.5569 z m 11.65415,0.71371 c 0.84955,-0.48565 1.82268,-0.883 2.1625,-0.883 0.33982,0 -0.0772,0.39735 -0.92679,0.883 -0.84955,0.48564 -1.82268,0.88299 -2.1625,0.88299 -0.33982,0 0.0772,-0.39735 0.92679,-0.88299 z m -21.00714,-1.18626 c 1.47019,-1.61278 11.73928,-9.25849 11.73928,-8.74033 0,0.30617 -11.08355,9.1984 -12.35714,9.91402 -0.50973,0.28642 -0.2317,-0.24174 0.61786,-1.17369 z m 1.66537,-7.50665 c 0.7098,-0.99587 1.93423,-2.36674 2.72094,-3.04638 0.96693,-0.83532 0.77372,-0.38766 -0.5963,1.3816 -2.34242,3.02506 -4.04503,4.35915 -2.12464,1.66478 z m -139.44752,-19.7785 c -16.34117,-2.91257 -27.66638,-12.25257 -32.15422,-26.51788 -2.08381,-6.62371 -1.965,-16.25277 0.28208,-22.86071 4.90451,-14.42262 16.29293,-23.45959 32.28928,-25.62228 6.32588,-0.85525 13.85771,-0.0172 20.14393,2.24129 4.50379,1.61812 11.62419,5.82746 13.5244,7.99516 0.97208,1.10891 0.91327,1.36657 -1.04365,4.57333 -1.14057,1.86902 -3.34931,5.55299 -4.90832,8.1866 -1.55901,2.63362 -3.12454,4.7884 -3.47896,4.7884 -0.35441,0 -1.80663,-0.77812 -3.22714,-1.72915 -11.39521,-7.62906 -24.59615,-5.68969 -29.11843,4.27784 -3.81608,8.41102 -0.52226,18.04558 7.38211,21.59294 6.85275,3.07541 13.94464,1.88036 23.12383,-3.89658 1.78618,-1.12413 2.19994,-1.19276 2.64986,-0.43949 0.29325,0.49096 2.64722,4.33706 5.23104,8.54689 l 4.69788,7.65425 -1.47809,1.18962 c -4.99535,4.02042 -11.52946,7.46658 -16.92452,8.92616 -3.19644,0.86477 -14.27452,1.5778 -16.99108,1.09361 z m 92.35215,-0.50116 c -7.4159,-1.41661 -13.31572,-4.5922 -18.75795,-10.09649 -5.44273,-5.50479 -8.18692,-10.24315 -9.97008,-17.21526 -4.00087,-15.64325 2.0797,-32.36029 14.94951,-41.10001 6.74566,-4.58088 12.28052,-6.15966 21.51923,-6.13819 11.7849,0.0274 19.19035,2.99522 26.8916,10.77718 7.50888,7.58758 10.1881,13.90477 10.64783,25.10592 0.34388,8.37847 -0.53063,12.7208 -3.94964,19.61178 -4.13426,8.33254 -12.93325,15.52109 -22.4058,18.30495 -4.74017,1.39308 -13.69979,1.74821 -18.9247,0.75012 z m 14.30384,-23.12699 c 6.55477,-3.37043 9.49457,-10.78521 7.33196,-18.49271 -1.95766,-6.97705 -6.72812,-10.78414 -13.59393,-10.84874 -13.79303,-0.12976 -20.32401,17.02844 -10.21358,26.83314 1.72097,1.66894 3.93947,3.13158 5.34586,3.5245 3.28962,0.91905 8.24615,0.4665 11.12969,-1.01619 z m 64.96364,-13.39984 c -0.0904,-19.94129 0.005,-36.53075 0.21209,-36.86545 0.24014,-0.38832 8.06623,-0.51823 21.625,-0.35896 18.95394,0.22264 21.71865,0.38362 25.60088,1.4907 16.45342,4.69192 25.63843,17.3357 25.60311,35.24437 -0.0342,17.31389 -7.98751,28.98268 -23.59266,34.614 -4.49763,1.62302 -4.56615,1.62781 -26.89663,1.87971 l -22.38753,0.25253 -0.16426,-36.2569 z m 39.75554,14.81111 c 5.88029,-2.07468 8.81147,-7.07501 8.85952,-15.1135 0.0277,-4.63488 -0.18635,-5.68725 -1.82219,-8.95893 -3.05172,-6.10344 -6.5647,-7.71418 -16.8366,-7.71976 l -6.33304,-0.003 0,16.37321 0,16.37322 6.71875,0 c 4.46823,0 7.62141,-0.31848 9.41356,-0.95079 z m 67.2784,-15.42243 0,-36.7625 30.275,0 30.275,0 0,10.19465 0,10.19464 -18.77853,0 c -20.89855,0 -19.52861,-0.30695 -19.52861,4.37553 l 0,2.4209 15.1375,0 15.1375,0 0,9.25687 0,9.25687 -14.98303,0.16545 -14.98304,0.16545 0,3.39822 0,3.39821 18.99911,0.16339 18.9991,0.16339 0,10.18572 0,10.18571 -30.275,0 -30.275,0 0,-36.7625 z"
         style="fill:#261204" />
    </g>
  </g>
</svg>
